<svg xmlns="http://www.w3.org/2000/svg" viewBox="0 0 368.87 118.6"><defs><style>.cls-1{fill:#9356dc;stroke:#fff;stroke-miterlimit:10;stroke-width:2px;}</style></defs><g id="Calque_2" data-name="Calque 2"><g id="Calque_1-2" data-name="Calque 1"><path class="cls-1" d="M101,19.24q11,9.24,11,26.63a69.78,69.78,0,0,1-2.49,17.7Q104.87,81,95.09,93.07A64.18,64.18,0,0,1,71.8,111.39a69.43,69.43,0,0,1-29.35,6.21Q23,117.6,12,108.36T1,81.73A73.87,73.87,0,0,1,3.64,63.57Q8.14,46.33,17.85,34.3A63.05,63.05,0,0,1,41,16.14,70,70,0,0,1,70.4,10Q90,10,101,19.24ZM59.22,29q-3.72,3.72-7.37,12.18A191.19,191.19,0,0,0,44,64.66q-6.21,21.74-6.21,30c0,3.21.56,5.54,1.7,7s3,2.17,5.44,2.17a11.49,11.49,0,0,0,8.38-3.8q3.74-3.81,7.3-12.19a222.46,222.46,0,0,0,7.92-23.13q6-21.43,6-30.12,0-5-1.71-7.15a6.31,6.31,0,0,0-5.27-2.17A11.58,11.58,0,0,0,59.22,29Z"/><path class="cls-1" d="M256.24,94.31a4.28,4.28,0,0,0-.31,1.86,2.51,2.51,0,0,0,.54,1.71,1.86,1.86,0,0,0,1.48.62,4,4,0,0,0,3.18-1.63c.88-1.09,1.48-1.63,1.79-1.63.51,0,.93.34,1.24,1a5.72,5.72,0,0,1,.47,2.41,14,14,0,0,1-2.95,8.77,22.34,22.34,0,0,1-9.09,7,34.52,34.52,0,0,1-14.36,2.71q-10.24,0-16.3-4.73a15.66,15.66,0,0,1-6.21-12.66,35.87,35.87,0,0,1,2.79-12.88l8.54-22.36a9.57,9.57,0,0,0,.78-3.26,4,4,0,0,0-1.32-3.18,4.63,4.63,0,0,0-3.18-1.17,8.64,8.64,0,0,0-5.44,2.33,19.6,19.6,0,0,0-5,7.3l-8.53,27.79a4.26,4.26,0,0,0-.32,1.86,2.46,2.46,0,0,0,.55,1.71,1.83,1.83,0,0,0,1.47.62,4,4,0,0,0,3.19-1.63c.87-1.09,1.47-1.63,1.78-1.63.52,0,.93.34,1.24,1a5.72,5.72,0,0,1,.47,2.41,13.93,13.93,0,0,1-3,8.77,22.31,22.31,0,0,1-9.08,7,34.59,34.59,0,0,1-14.36,2.71q-10.26,0-16.31-4.73a15.69,15.69,0,0,1-6.21-12.66,35.69,35.69,0,0,1,2.8-12.88L175.2,64.5a9.75,9.75,0,0,0,.77-3.26,4,4,0,0,0-1.32-3.18,4.63,4.63,0,0,0-3.18-1.17A8.74,8.74,0,0,0,166,59.14a16.47,16.47,0,0,0-4.66,7.22L151.13,99.59a9.66,9.66,0,0,0-.62,3.26,5.36,5.36,0,0,0,.78,3,12.54,12.54,0,0,0,2.17,2.4A7.45,7.45,0,0,1,155,110a2.26,2.26,0,0,1,.16,1.86,4.65,4.65,0,0,1-2.95,3,21.05,21.05,0,0,1-7.3.94h-35.4q-4,0-5.82-1.32a3.21,3.21,0,0,1-1.32-3.5,6.21,6.21,0,0,1,3.26-3.26,14.19,14.19,0,0,0,3.88-3,13.83,13.83,0,0,0,2.64-5.43L126,54.41a6,6,0,0,0,.31-2.18,4.29,4.29,0,0,0-.7-2.63,17,17,0,0,0-2.25-2.33,10.66,10.66,0,0,1-2.17-2.18,2.84,2.84,0,0,1-.16-2.48q.93-3.57,9.78-6.29a62.66,62.66,0,0,1,18.48-2.72q7.6,0,12,4.2t4.27,11.49Q171.93,40.44,179,37a34.64,34.64,0,0,1,15.29-3.42q9,0,14.68,5.21a19.65,19.65,0,0,1,6.28,13.58q6.67-10.56,14.29-14.67a34.39,34.39,0,0,1,16.61-4.12q9.47,0,15.29,5.75t5.82,14.9a29.59,29.59,0,0,1-1.55,9.47Z"/><path class="cls-1" d="M359.56,6.05q8.31,5,8.31,12.34A10.21,10.21,0,0,1,363,27.47q-4.89,3.18-12.81,3.18c-4.87,0-8.64-1.18-11.33-3.57a11.32,11.32,0,0,1-4-8.85,13.87,13.87,0,0,1,2-6.83,12.84,12.84,0,0,0-7.76,2.25q-3.12,2.25-4.82,7.69a24.33,24.33,0,0,0-.93,6.36,10.92,10.92,0,0,0,1.32,5.83,4.24,4.24,0,0,0,3.8,2.09h9.16q8.09,0,8.08,5a8.78,8.78,0,0,1-.31,1.86,8.22,8.22,0,0,1-3.81,5.13q-2.87,1.71-8.61,1.71h-4.66l-15.37,50.3a13.73,13.73,0,0,0-.47,3.26,5.62,5.62,0,0,0,.78,3.18,9.7,9.7,0,0,0,2.17,2.25,12.63,12.63,0,0,1,1.56,1.79,2.06,2.06,0,0,1,.15,1.78,5.15,5.15,0,0,1-3.1,3,20.51,20.51,0,0,1-7.15.94H271.46c-2.7,0-4.66-.44-5.9-1.32a3,3,0,0,1-1.25-3.5,6.21,6.21,0,0,1,3.26-3.26,14.24,14.24,0,0,0,3.89-3,14,14,0,0,0,2.63-5.43L286.2,59.53a15,15,0,0,0,.78-4.81,8.06,8.06,0,0,0-1.32-4.89,23.65,23.65,0,0,0-4-4,19.48,19.48,0,0,1-2.56-2.41,3.58,3.58,0,0,1-.85-2.4,4.12,4.12,0,0,1,2.09-4.2c1.5-.82,4.37-1.24,8.62-1.24h3.88a28.78,28.78,0,0,1-1.09-7.76,25.49,25.49,0,0,1,1.4-8.07q3-7.92,12.65-13.36T334.65,1Q351.26,1,359.56,6.05Z"/></g></g></svg>